<svg width="1200" height="630" viewBox="0 0 1200 630" fill="none" xmlns="http://www.w3.org/2000/svg">
  <rect width="1200" height="630" rx="36" fill="#08111B"/>
  <rect x="24" y="24" width="1152" height="582" rx="28" fill="url(#paint0_radial)"/>
  <rect x="24" y="24" width="1152" height="582" rx="28" stroke="rgba(255,255,255,0.12)"/>
  <circle cx="1032" cy="118" r="180" fill="url(#paint1_radial)" fill-opacity="0.8"/>
  <circle cx="202" cy="130" r="160" fill="url(#paint2_radial)" fill-opacity="0.7"/>
  <path d="M228 438C334 400 398 344 502 344C610 344 670 430 782 430C868 430 926 374 994 326" stroke="url(#paint3_linear)" stroke-width="4" stroke-linecap="round"/>
  <circle cx="228" cy="438" r="12" fill="#F0D59A"/>
  <circle cx="502" cy="344" r="12" fill="#8FE1DA"/>
  <circle cx="782" cy="430" r="12" fill="#F1A7B5"/>
  <circle cx="994" cy="326" r="12" fill="#8FE1DA"/>
  <text x="88" y="154" fill="#8FE1DA" font-family="Arial, sans-serif" font-size="20" letter-spacing="6">TRAVEL BUDDY</text>
  <text x="88" y="250" fill="#F6F4EE" font-family="Georgia, serif" font-size="76" letter-spacing="-2">Easter Escape 2026</text>
  <text x="88" y="312" fill="#DCE3E7" font-family="Arial, sans-serif" font-size="30">Rutland calm, Lincoln heritage, Leamington soft return.</text>
  <g opacity="0.9">
    <rect x="88" y="396" width="180" height="58" rx="18" fill="rgba(255,255,255,0.06)"/>
    <text x="116" y="430" fill="#DCE3E7" font-family="Arial, sans-serif" font-size="22">Base</text>
    <text x="116" y="458" fill="#F6F4EE" font-family="Arial, sans-serif" font-size="24">Hambleton</text>
  </g>
  <g opacity="0.9">
    <rect x="292" y="396" width="198" height="58" rx="18" fill="rgba(255,255,255,0.06)"/>
    <text x="320" y="430" fill="#DCE3E7" font-family="Arial, sans-serif" font-size="22">Anchor day</text>
    <text x="320" y="458" fill="#F6F4EE" font-family="Arial, sans-serif" font-size="24">Lincoln</text>
  </g>
  <g opacity="0.9">
    <rect x="514" y="396" width="206" height="58" rx="18" fill="rgba(255,255,255,0.06)"/>
    <text x="542" y="430" fill="#DCE3E7" font-family="Arial, sans-serif" font-size="22">Return stop</text>
    <text x="542" y="458" fill="#F6F4EE" font-family="Arial, sans-serif" font-size="24">Leamington Spa</text>
  </g>
  <defs>
    <radialGradient id="paint0_radial" cx="0" cy="0" r="1" gradientUnits="userSpaceOnUse" gradientTransform="translate(1082 96) rotate(151.915) scale(1110.65 749.074)">
      <stop stop-color="#12273C"/>
      <stop offset="1" stop-color="#08111B"/>
    </radialGradient>
    <radialGradient id="paint1_radial" cx="0" cy="0" r="1" gradientUnits="userSpaceOnUse" gradientTransform="translate(1032 118) rotate(90) scale(180)">
      <stop stop-color="#F0D59A"/>
      <stop offset="1" stop-color="#F0D59A" stop-opacity="0"/>
    </radialGradient>
    <radialGradient id="paint2_radial" cx="0" cy="0" r="1" gradientUnits="userSpaceOnUse" gradientTransform="translate(202 130) rotate(90) scale(160)">
      <stop stop-color="#8FE1DA"/>
      <stop offset="1" stop-color="#8FE1DA" stop-opacity="0"/>
    </radialGradient>
    <linearGradient id="paint3_linear" x1="228" y1="438" x2="994" y2="326" gradientUnits="userSpaceOnUse">
      <stop stop-color="#F0D59A"/>
      <stop offset="0.5" stop-color="#8FE1DA"/>
      <stop offset="1" stop-color="#F1A7B5"/>
    </linearGradient>
  </defs>
</svg>
